<svg width="350" height="100" viewBox="0 0 350 100" fill="none" xmlns="http://www.w3.org/2000/svg">
<g clip-path="url(#clip0)">
<path d="M75.312 60.3487C76.197 58.6447 76.665 56.7427 76.665 54.7687C76.665 48.1447 71.337 42.7387 64.74 42.6157C66.837 39.7597 67.908 36.2587 67.725 32.6497C67.494 28.0297 65.238 23.7847 61.338 20.8717L50.331 14.3137C49.635 13.8997 48.768 13.8907 48.069 14.2897C47.364 14.6917 46.929 15.4387 46.929 16.2457V22.5187C46.929 26.0167 44.085 28.8607 40.587 28.8607C37.659 28.8607 34.917 30.0097 32.865 32.0917C30.813 34.1737 29.703 36.9367 29.748 39.8617C29.763 40.8337 29.955 41.7877 30.306 42.6727C24.156 43.2697 19.338 48.4687 19.338 54.7687C19.338 56.7427 19.806 58.6447 20.691 60.3487C15.603 62.2177 12 67.1017 12 72.7417C12 80.0527 17.946 85.9987 25.257 85.9987H70.743C78.054 85.9987 84 80.0527 84 72.7417C84 67.1017 80.397 62.2177 75.312 60.3487V60.3487ZM36 51.4537C38.481 51.4537 40.5 53.4727 40.5 55.9537C40.5 58.4347 38.481 60.4537 36 60.4537C33.519 60.4537 31.5 58.4347 31.5 55.9537C31.5 53.4727 33.519 51.4537 36 51.4537ZM64.401 67.9177C62.154 75.1537 55.563 80.0167 48 80.0167C40.437 80.0167 33.846 75.1537 31.599 67.9177C31.389 67.2337 31.515 66.4897 31.938 65.9137C32.361 65.3377 33.036 64.9987 33.75 64.9987H62.25C62.964 64.9987 63.639 65.3377 64.062 65.9137C64.485 66.4897 64.611 67.2337 64.401 67.9177ZM60 60.4537C57.519 60.4537 55.5 58.4347 55.5 55.9537C55.5 53.4727 57.519 51.4537 60 51.4537C62.481 51.4537 64.5 53.4727 64.5 55.9537C64.5 58.4347 62.481 60.4537 60 60.4537V60.4537Z" fill="#15AABF"/>
</g>
<path d="M113.658 49.104C112.65 49.16 111.908 49.272 111.432 49.44C110.984 49.608 110.676 49.93 110.508 50.406C110.34 50.882 110.256 51.652 110.256 52.716V74.052C110.256 74.948 110.326 75.606 110.466 76.026C110.606 76.418 110.844 76.684 111.18 76.824C111.544 76.964 112.118 77.034 112.902 77.034H114.96C116.864 77.034 118.502 76.18 119.874 74.472C121.274 72.764 122.184 70.496 122.604 67.668H123.57C123.486 68.62 123.444 69.852 123.444 71.364C123.444 74.052 123.542 76.264 123.738 78C121.834 77.916 118.628 77.874 114.12 77.874C108.016 77.874 103.452 77.916 100.428 78V77.16C101.352 77.104 102.024 76.992 102.444 76.824C102.892 76.656 103.186 76.334 103.326 75.858C103.494 75.382 103.578 74.612 103.578 73.548V52.716C103.578 51.652 103.494 50.882 103.326 50.406C103.186 49.93 102.892 49.608 102.444 49.44C102.024 49.272 101.352 49.16 100.428 49.104V48.264C101.856 48.348 104.068 48.39 107.064 48.39C109.92 48.39 112.118 48.348 113.658 48.264V49.104ZM138.032 75.144C140.328 75.144 142.176 74.024 143.576 71.784L144.332 72.036C143.772 73.856 142.764 75.41 141.308 76.698C139.88 77.958 138.088 78.588 135.932 78.588C132.964 78.588 130.598 77.65 128.834 75.774C127.098 73.87 126.23 71.07 126.23 67.374C126.23 63.594 127.168 60.71 129.044 58.722C130.92 56.706 133.412 55.698 136.52 55.698C141.784 55.698 144.416 58.806 144.416 65.022H132.614C132.586 65.442 132.572 66.1 132.572 66.996C132.572 68.844 132.824 70.384 133.328 71.616C133.86 72.848 134.532 73.744 135.344 74.304C136.184 74.864 137.08 75.144 138.032 75.144ZM136.268 56.58C135.26 56.58 134.42 57.21 133.748 58.47C133.104 59.702 132.698 61.62 132.53 64.224H139.124C139.18 62.012 138.956 60.192 138.452 58.764C137.976 57.308 137.248 56.58 136.268 56.58ZM166.899 65.988V73.296C166.899 74.416 167.011 75.242 167.235 75.774C167.487 76.278 167.907 76.614 168.495 76.782C169.111 76.95 170.077 77.048 171.393 77.076V78C167.949 77.916 165.387 77.874 163.707 77.874C162.307 77.874 160.543 77.902 158.415 77.958L157.071 78V77.16C157.995 77.104 158.667 76.992 159.087 76.824C159.535 76.656 159.829 76.334 159.969 75.858C160.137 75.382 160.221 74.612 160.221 73.548V52.716C160.221 51.652 160.137 50.882 159.969 50.406C159.829 49.93 159.535 49.608 159.087 49.44C158.667 49.272 157.995 49.16 157.071 49.104V48.264C158.499 48.348 160.627 48.39 163.455 48.39L168.117 48.348C168.677 48.32 169.321 48.306 170.049 48.306C173.829 48.306 176.713 49.062 178.701 50.574C180.689 52.058 181.683 54.06 181.683 56.58C181.683 58.12 181.291 59.604 180.507 61.032C179.723 62.432 178.393 63.608 176.517 64.56C174.669 65.512 172.205 65.988 169.125 65.988H166.899ZM169.503 49.104C168.747 49.104 168.187 49.202 167.823 49.398C167.487 49.594 167.249 49.944 167.109 50.448C166.969 50.952 166.899 51.708 166.899 52.716V65.148H168.705C170.973 65.148 172.541 64.42 173.409 62.964C174.277 61.508 174.711 59.534 174.711 57.042C174.711 54.326 174.305 52.324 173.493 51.036C172.709 49.748 171.379 49.104 169.503 49.104ZM192.083 56.286H197.039V57.126H192.083V74.094C192.083 74.934 192.223 75.536 192.503 75.9C192.811 76.236 193.287 76.404 193.931 76.404C195.135 76.404 196.087 75.564 196.787 73.884L197.501 74.262C196.437 77.146 194.519 78.588 191.747 78.588C189.899 78.588 188.499 78.112 187.547 77.16C186.959 76.572 186.553 75.844 186.329 74.976C186.133 74.08 186.035 72.862 186.035 71.322V57.126H182.507V56.286H186.035V50.742C188.359 50.742 190.375 50.294 192.083 49.398V56.286ZM203.782 45.45C204.958 45.45 205.882 45.744 206.554 46.332C207.254 46.892 207.604 47.676 207.604 48.684C207.604 49.692 207.254 50.49 206.554 51.078C205.882 51.638 204.958 51.918 203.782 51.918C202.606 51.918 201.668 51.638 200.968 51.078C200.296 50.49 199.96 49.692 199.96 48.684C199.96 47.676 200.296 46.892 200.968 46.332C201.668 45.744 202.606 45.45 203.782 45.45ZM207.058 74.094C207.058 75.242 207.254 76.04 207.646 76.488C208.066 76.908 208.766 77.118 209.746 77.118V78C206.946 77.888 205.084 77.832 204.16 77.832C203.292 77.832 201.346 77.888 198.322 78V77.118C199.33 77.118 200.03 76.908 200.422 76.488C200.814 76.04 201.01 75.242 201.01 74.094V60.864C201.01 59.576 200.814 58.638 200.422 58.05C200.03 57.462 199.33 57.168 198.322 57.168V56.286C199.218 56.37 200.086 56.412 200.926 56.412C203.418 56.412 205.462 56.216 207.058 55.824V74.094ZM220.097 56.286H225.053V57.126H220.097V74.094C220.097 74.934 220.237 75.536 220.517 75.9C220.825 76.236 221.301 76.404 221.945 76.404C223.149 76.404 224.101 75.564 224.801 73.884L225.515 74.262C224.451 77.146 222.533 78.588 219.761 78.588C217.913 78.588 216.513 78.112 215.561 77.16C214.973 76.572 214.567 75.844 214.343 74.976C214.147 74.08 214.049 72.862 214.049 71.322V57.126H210.52V56.286H214.049V50.742C216.373 50.742 218.389 50.294 220.097 49.398V56.286ZM251.518 47.676C253.198 47.676 254.626 47.914 255.802 48.39C256.978 48.866 258.126 49.538 259.246 50.406C259.554 50.658 259.82 50.784 260.044 50.784C260.604 50.784 260.968 49.944 261.136 48.264H262.102C261.99 50.168 261.934 53.556 261.934 58.428H260.968C260.716 56.356 260.38 54.774 259.96 53.682C259.54 52.59 258.826 51.638 257.818 50.826C257.118 50.154 256.306 49.65 255.382 49.314C254.458 48.95 253.492 48.768 252.484 48.768C249.656 48.768 247.556 50.154 246.184 52.926C244.812 55.67 244.126 59.1 244.126 63.216C244.126 67.304 244.84 70.72 246.268 73.464C247.696 76.208 249.824 77.58 252.652 77.58C253.604 77.58 254.542 77.412 255.466 77.076C256.418 76.712 257.216 76.194 257.86 75.522C258.896 74.738 259.61 73.758 260.002 72.582C260.422 71.406 260.744 69.684 260.968 67.416H261.934C261.934 72.484 261.99 76.012 262.102 78H261.136C261.052 77.104 260.926 76.474 260.758 76.11C260.618 75.718 260.408 75.522 260.128 75.522C259.904 75.522 259.61 75.634 259.246 75.858C257.986 76.754 256.782 77.44 255.634 77.916C254.486 78.364 253.1 78.588 251.476 78.588C248.508 78.588 245.904 77.986 243.664 76.782C241.452 75.578 239.73 73.842 238.498 71.574C237.266 69.278 236.65 66.548 236.65 63.384C236.65 60.304 237.28 57.574 238.54 55.194C239.8 52.814 241.55 50.966 243.79 49.65C246.058 48.334 248.634 47.676 251.518 47.676ZM276.301 55.698C279.521 55.698 282.041 56.622 283.861 58.47C285.681 60.29 286.591 63.188 286.591 67.164C286.591 71.14 285.681 74.038 283.861 75.858C282.041 77.678 279.521 78.588 276.301 78.588C273.109 78.588 270.589 77.678 268.741 75.858C266.921 74.038 266.011 71.14 266.011 67.164C266.011 63.188 266.921 60.29 268.741 58.47C270.589 56.622 273.109 55.698 276.301 55.698ZM276.301 56.538C275.097 56.538 274.131 57.42 273.403 59.184C272.703 60.92 272.353 63.58 272.353 67.164C272.353 70.748 272.703 73.408 273.403 75.144C274.131 76.88 275.097 77.748 276.301 77.748C277.533 77.748 278.499 76.894 279.199 75.186C279.899 73.45 280.249 70.776 280.249 67.164C280.249 63.552 279.885 60.878 279.157 59.142C278.457 57.406 277.505 56.538 276.301 56.538ZM294.673 45.45C295.849 45.45 296.773 45.744 297.445 46.332C298.145 46.892 298.495 47.676 298.495 48.684C298.495 49.692 298.145 50.49 297.445 51.078C296.773 51.638 295.849 51.918 294.673 51.918C293.497 51.918 292.559 51.638 291.859 51.078C291.187 50.49 290.851 49.692 290.851 48.684C290.851 47.676 291.187 46.892 291.859 46.332C292.559 45.744 293.497 45.45 294.673 45.45ZM297.949 74.094C297.949 75.242 298.145 76.04 298.537 76.488C298.957 76.908 299.657 77.118 300.637 77.118V78C297.837 77.888 295.975 77.832 295.051 77.832C294.183 77.832 292.237 77.888 289.213 78V77.118C290.221 77.118 290.921 76.908 291.313 76.488C291.705 76.04 291.901 75.242 291.901 74.094V60.864C291.901 59.576 291.705 58.638 291.313 58.05C290.921 57.462 290.221 57.168 289.213 57.168V56.286C290.109 56.37 290.977 56.412 291.817 56.412C294.309 56.412 296.353 56.216 297.949 55.824V74.094ZM318.085 55.698C320.213 55.698 321.753 56.244 322.705 57.336C323.181 57.868 323.517 58.554 323.713 59.394C323.909 60.234 324.007 61.368 324.007 62.796V74.094C324.007 75.242 324.203 76.04 324.595 76.488C325.015 76.908 325.715 77.118 326.695 77.118V78C323.895 77.888 322.047 77.832 321.151 77.832C320.311 77.832 318.491 77.888 315.691 78V77.118C316.531 77.118 317.119 76.908 317.455 76.488C317.791 76.04 317.959 75.242 317.959 74.094V61.032C317.959 59.884 317.763 59.016 317.371 58.428C317.007 57.84 316.335 57.546 315.355 57.546C314.207 57.546 313.227 58.022 312.415 58.974C311.603 59.898 311.197 61.046 311.197 62.418V74.094C311.197 75.242 311.365 76.04 311.701 76.488C312.037 76.908 312.625 77.118 313.465 77.118V78C310.889 77.888 309.153 77.832 308.257 77.832C307.417 77.832 305.485 77.888 302.461 78V77.118C303.469 77.118 304.169 76.908 304.561 76.488C304.953 76.04 305.149 75.242 305.149 74.094V60.864C305.149 59.576 304.953 58.638 304.561 58.05C304.169 57.462 303.469 57.168 302.461 57.168V56.286C303.357 56.37 304.225 56.412 305.065 56.412C307.557 56.412 309.601 56.216 311.197 55.824V59.604C312.457 57 314.753 55.698 318.085 55.698Z" fill="#6E7E85"/>
<defs>
<clipPath id="clip0">
<rect width="72" height="72" fill="white" transform="translate(12 14)"/>
</clipPath>
</defs>
</svg>
