<svg width="350" height="100" viewBox="0 0 350 100" fill="none" xmlns="http://www.w3.org/2000/svg">
<g clip-path="url(#clip0)">
<path d="M75.312 60.3487C76.197 58.6447 76.665 56.7427 76.665 54.7687C76.665 48.1447 71.337 42.7387 64.74 42.6157C66.837 39.7597 67.908 36.2587 67.725 32.6497C67.494 28.0297 65.238 23.7847 61.338 20.8717L50.331 14.3137C49.635 13.8997 48.768 13.8907 48.069 14.2897C47.364 14.6917 46.929 15.4387 46.929 16.2457V22.5187C46.929 26.0167 44.085 28.8607 40.587 28.8607C37.659 28.8607 34.917 30.0097 32.865 32.0917C30.813 34.1737 29.703 36.9367 29.748 39.8617C29.763 40.8337 29.955 41.7877 30.306 42.6727C24.156 43.2697 19.338 48.4687 19.338 54.7687C19.338 56.7427 19.806 58.6447 20.691 60.3487C15.603 62.2177 12 67.1017 12 72.7417C12 80.0527 17.946 85.9987 25.257 85.9987H70.743C78.054 85.9987 84 80.0527 84 72.7417C84 67.1017 80.397 62.2177 75.312 60.3487V60.3487ZM36 51.4537C38.481 51.4537 40.5 53.4727 40.5 55.9537C40.5 58.4347 38.481 60.4537 36 60.4537C33.519 60.4537 31.5 58.4347 31.5 55.9537C31.5 53.4727 33.519 51.4537 36 51.4537ZM64.401 67.9177C62.154 75.1537 55.563 80.0167 48 80.0167C40.437 80.0167 33.846 75.1537 31.599 67.9177C31.389 67.2337 31.515 66.4897 31.938 65.9137C32.361 65.3377 33.036 64.9987 33.75 64.9987H62.25C62.964 64.9987 63.639 65.3377 64.062 65.9137C64.485 66.4897 64.611 67.2337 64.401 67.9177ZM60 60.4537C57.519 60.4537 55.5 58.4347 55.5 55.9537C55.5 53.4727 57.519 51.4537 60 51.4537C62.481 51.4537 64.5 53.4727 64.5 55.9537C64.5 58.4347 62.481 60.4537 60 60.4537V60.4537Z" fill="#88380B"/>
</g>
<path d="M110.88 48.48C109.92 48.5333 109.213 48.64 108.76 48.8C108.333 48.96 108.04 49.2667 107.88 49.72C107.72 50.1733 107.64 50.9067 107.64 51.92V71.76C107.64 72.7733 107.72 73.5067 107.88 73.96C108.04 74.4133 108.333 74.72 108.76 74.88C109.213 75.0133 109.92 75.08 110.88 75.08H113.8C115.453 75.08 116.707 74.8533 117.56 74.4C118.44 73.92 119.08 73.16 119.48 72.12C119.88 71.08 120.173 69.5733 120.36 67.6H121.28C121.2 68.4267 121.16 69.52 121.16 70.88C121.16 72.4 121.253 74.1067 121.44 76C119.627 75.92 116.573 75.88 112.28 75.88C107.16 75.88 103.293 75.92 100.68 76V75.2C101.64 75.1467 102.333 75.04 102.76 74.88C103.213 74.72 103.52 74.4133 103.68 73.96C103.84 73.5067 103.92 72.7733 103.92 71.76V51.92C103.92 50.9067 103.84 50.1733 103.68 49.72C103.52 49.2667 103.213 48.96 102.76 48.8C102.333 48.64 101.64 48.5333 100.68 48.48V47.68C101.8 47.76 103.507 47.8 105.8 47.8C107.933 47.8 109.627 47.76 110.88 47.68V48.48ZM141.036 71.2C140.556 72.6667 139.649 73.9333 138.316 75C137.009 76.04 135.422 76.56 133.556 76.56C131.662 76.56 130.022 76.1333 128.636 75.28C127.249 74.4 126.182 73.1867 125.436 71.64C124.716 70.0667 124.356 68.2533 124.356 66.2C124.356 63.88 124.729 61.8667 125.476 60.16C126.222 58.4533 127.276 57.1467 128.636 56.24C129.996 55.3067 131.582 54.84 133.396 54.84C135.796 54.84 137.636 55.5733 138.916 57.04C140.222 58.48 140.876 60.68 140.876 63.64H128.356C128.276 64.3867 128.236 65.24 128.236 66.2C128.236 67.96 128.516 69.4933 129.076 70.8C129.662 72.1067 130.422 73.12 131.356 73.84C132.316 74.5333 133.316 74.88 134.356 74.88C135.636 74.88 136.769 74.5733 137.756 73.96C138.742 73.3467 139.569 72.32 140.236 70.88L141.036 71.2ZM133.236 55.6C131.982 55.6 130.902 56.2133 129.996 57.44C129.089 58.6667 128.529 60.48 128.316 62.88H137.036C137.089 60.8 136.782 59.0667 136.116 57.68C135.476 56.2933 134.516 55.6 133.236 55.6ZM161.351 64.56V71.76C161.351 72.7733 161.458 73.5067 161.671 73.96C161.884 74.4133 162.258 74.72 162.791 74.88C163.324 75.04 164.191 75.1467 165.391 75.2V76C164.004 75.92 162.044 75.88 159.511 75.88C157.218 75.88 155.511 75.92 154.391 76V75.2C155.351 75.1467 156.044 75.04 156.471 74.88C156.924 74.72 157.231 74.4133 157.391 73.96C157.551 73.5067 157.631 72.7733 157.631 71.76V51.92C157.631 50.9067 157.551 50.1733 157.391 49.72C157.231 49.2667 156.924 48.96 156.471 48.8C156.044 48.64 155.351 48.5333 154.391 48.48V47.68C155.511 47.76 157.138 47.8 159.271 47.8L163.591 47.76C164.098 47.7333 164.671 47.72 165.311 47.72C168.431 47.72 170.818 48.44 172.471 49.88C174.124 51.2933 174.951 53.2 174.951 55.6C174.951 57.0667 174.618 58.48 173.951 59.84C173.311 61.1733 172.204 62.2933 170.631 63.2C169.084 64.1067 167.018 64.56 164.431 64.56H161.351ZM164.311 48.48C163.484 48.48 162.858 48.5733 162.431 48.76C162.031 48.9467 161.751 49.28 161.591 49.76C161.431 50.24 161.351 50.96 161.351 51.92V63.76H164.031C166.644 63.76 168.444 63.0667 169.431 61.68C170.444 60.2667 170.951 58.3867 170.951 56.04C170.951 53.4533 170.431 51.5467 169.391 50.32C168.378 49.0933 166.684 48.48 164.311 48.48ZM194.2 71.2C193.72 72.6667 192.813 73.9333 191.48 75C190.173 76.04 188.586 76.56 186.72 76.56C184.826 76.56 183.186 76.1333 181.8 75.28C180.413 74.4 179.346 73.1867 178.6 71.64C177.88 70.0667 177.52 68.2533 177.52 66.2C177.52 63.88 177.893 61.8667 178.64 60.16C179.386 58.4533 180.44 57.1467 181.8 56.24C183.16 55.3067 184.746 54.84 186.56 54.84C188.96 54.84 190.8 55.5733 192.08 57.04C193.386 58.48 194.04 60.68 194.04 63.64H181.52C181.44 64.3867 181.4 65.24 181.4 66.2C181.4 67.96 181.68 69.4933 182.24 70.8C182.826 72.1067 183.586 73.12 184.52 73.84C185.48 74.5333 186.48 74.88 187.52 74.88C188.8 74.88 189.933 74.5733 190.92 73.96C191.906 73.3467 192.733 72.32 193.4 70.88L194.2 71.2ZM186.4 55.6C185.146 55.6 184.066 56.2133 183.16 57.44C182.253 58.6667 181.693 60.48 181.48 62.88H190.2C190.253 60.8 189.946 59.0667 189.28 57.68C188.64 56.2933 187.68 55.6 186.4 55.6ZM203.514 55.44H209.434V56.24H203.514V71.72C203.514 72.92 203.727 73.7867 204.154 74.32C204.607 74.8533 205.247 75.12 206.074 75.12C206.901 75.12 207.607 74.7867 208.194 74.12C208.781 73.4533 209.274 72.36 209.674 70.84L210.474 71.04C209.807 74.72 208.074 76.56 205.274 76.56C204.367 76.56 203.621 76.4533 203.034 76.24C202.447 76.0267 201.927 75.6933 201.474 75.24C200.887 74.6533 200.474 73.9333 200.234 73.08C200.021 72.2267 199.914 71.08 199.914 69.64V56.24H196.074V55.44H199.914V49.32C201.407 49.2667 202.607 49.08 203.514 48.76V55.44ZM215.775 45.4C216.468 45.4 217.068 45.6533 217.575 46.16C218.081 46.6667 218.335 47.2667 218.335 47.96C218.335 48.6533 218.081 49.2533 217.575 49.76C217.068 50.2667 216.468 50.52 215.775 50.52C215.081 50.52 214.481 50.2667 213.975 49.76C213.468 49.2533 213.215 48.6533 213.215 47.96C213.215 47.2667 213.468 46.6667 213.975 46.16C214.481 45.6533 215.081 45.4 215.775 45.4ZM217.855 72.28C217.855 73.3733 218.081 74.1333 218.535 74.56C218.988 74.96 219.775 75.16 220.895 75.16V76C218.441 75.8933 216.828 75.84 216.055 75.84C215.281 75.84 213.668 75.8933 211.215 76V75.16C212.335 75.16 213.121 74.96 213.575 74.56C214.028 74.1333 214.255 73.3733 214.255 72.28V59.76C214.255 58.5333 214.028 57.64 213.575 57.08C213.121 56.52 212.335 56.24 211.215 56.24V55.4C212.068 55.48 212.895 55.52 213.695 55.52C215.375 55.52 216.761 55.3333 217.855 54.96V72.28ZM229.373 55.44H235.293V56.24H229.373V71.72C229.373 72.92 229.587 73.7867 230.013 74.32C230.467 74.8533 231.107 75.12 231.933 75.12C232.76 75.12 233.467 74.7867 234.053 74.12C234.64 73.4533 235.133 72.36 235.533 70.84L236.333 71.04C235.667 74.72 233.933 76.56 231.133 76.56C230.227 76.56 229.48 76.4533 228.893 76.24C228.307 76.0267 227.787 75.6933 227.333 75.24C226.747 74.6533 226.333 73.9333 226.093 73.08C225.88 72.2267 225.773 71.08 225.773 69.64V56.24H221.933V55.44H225.773V49.32C227.267 49.2667 228.467 49.08 229.373 48.76V55.44ZM260.051 47.12C261.651 47.12 263.011 47.3467 264.131 47.8C265.251 48.2533 266.344 48.8933 267.411 49.72C267.704 49.96 267.958 50.08 268.171 50.08C268.704 50.08 269.051 49.28 269.211 47.68H270.131C270.024 49.4133 269.971 52.48 269.971 56.88H269.051C268.758 55.1467 268.491 53.9067 268.251 53.16C268.011 52.3867 267.611 51.6533 267.051 50.96C266.251 49.92 265.224 49.1467 263.971 48.64C262.744 48.1067 261.411 47.84 259.971 47.84C258.238 47.84 256.718 48.4133 255.411 49.56C254.131 50.7067 253.131 52.3467 252.411 54.48C251.691 56.5867 251.331 59.0667 251.331 61.92C251.331 64.8267 251.718 67.32 252.491 69.4C253.264 71.48 254.331 73.0667 255.691 74.16C257.078 75.2267 258.638 75.76 260.371 75.76C261.704 75.76 262.998 75.5067 264.251 75C265.504 74.4933 266.491 73.7333 267.211 72.72C267.744 71.9733 268.131 71.1733 268.371 70.32C268.611 69.4667 268.838 68.16 269.051 66.4H269.971C269.971 70.9867 270.024 74.1867 270.131 76H269.211C269.131 75.1467 269.011 74.5467 268.851 74.2C268.718 73.8267 268.518 73.64 268.251 73.64C268.038 73.64 267.758 73.7467 267.411 73.96C266.211 74.8133 265.064 75.4667 263.971 75.92C262.878 76.3467 261.558 76.56 260.011 76.56C257.478 76.56 255.251 75.9867 253.331 74.84C251.438 73.6933 249.958 72.04 248.891 69.88C247.851 67.6933 247.331 65.0933 247.331 62.08C247.331 59.1467 247.864 56.5467 248.931 54.28C250.024 52.0133 251.531 50.2533 253.451 49C255.398 47.7467 257.598 47.12 260.051 47.12ZM283.71 54.84C286.43 54.84 288.617 55.7467 290.27 57.56C291.95 59.3467 292.79 62.0667 292.79 65.72C292.79 69.3733 291.95 72.0933 290.27 73.88C288.617 75.6667 286.43 76.56 283.71 76.56C280.99 76.56 278.79 75.6667 277.11 73.88C275.457 72.0933 274.63 69.3733 274.63 65.72C274.63 62.0667 275.457 59.3467 277.11 57.56C278.79 55.7467 280.99 54.84 283.71 54.84ZM283.71 55.64C282.11 55.64 280.843 56.4667 279.91 58.12C278.977 59.7467 278.51 62.28 278.51 65.72C278.51 69.16 278.977 71.6933 279.91 73.32C280.843 74.9467 282.11 75.76 283.71 75.76C285.31 75.76 286.577 74.9467 287.51 73.32C288.443 71.6933 288.91 69.16 288.91 65.72C288.91 62.28 288.443 59.7467 287.51 58.12C286.577 56.4667 285.31 55.64 283.71 55.64ZM300.384 45.4C301.077 45.4 301.677 45.6533 302.184 46.16C302.691 46.6667 302.944 47.2667 302.944 47.96C302.944 48.6533 302.691 49.2533 302.184 49.76C301.677 50.2667 301.077 50.52 300.384 50.52C299.691 50.52 299.091 50.2667 298.584 49.76C298.077 49.2533 297.824 48.6533 297.824 47.96C297.824 47.2667 298.077 46.6667 298.584 46.16C299.091 45.6533 299.691 45.4 300.384 45.4ZM302.464 72.28C302.464 73.3733 302.691 74.1333 303.144 74.56C303.597 74.96 304.384 75.16 305.504 75.16V76C303.051 75.8933 301.437 75.84 300.664 75.84C299.891 75.84 298.277 75.8933 295.824 76V75.16C296.944 75.16 297.731 74.96 298.184 74.56C298.637 74.1333 298.864 73.3733 298.864 72.28V59.76C298.864 58.5333 298.637 57.64 298.184 57.08C297.731 56.52 296.944 56.24 295.824 56.24V55.4C296.677 55.48 297.504 55.52 298.304 55.52C299.984 55.52 301.371 55.3333 302.464 54.96V72.28ZM320.983 54.84C322.849 54.84 324.263 55.3467 325.223 56.36C325.729 56.8933 326.089 57.56 326.303 58.36C326.516 59.16 326.623 60.24 326.623 61.6V72.28C326.623 73.3733 326.849 74.1333 327.303 74.56C327.756 74.96 328.543 75.16 329.663 75.16V76C327.209 75.8933 325.609 75.84 324.863 75.84C324.116 75.84 322.623 75.8933 320.383 76V75.16C321.369 75.16 322.049 74.96 322.423 74.56C322.823 74.1333 323.023 73.3733 323.023 72.28V60.72C323.023 59.2267 322.809 58.0933 322.383 57.32C321.956 56.52 321.089 56.12 319.783 56.12C318.689 56.12 317.716 56.44 316.863 57.08C316.009 57.72 315.343 58.6 314.863 59.72C314.409 60.8133 314.183 62.04 314.183 63.4V72.28C314.183 73.3733 314.369 74.1333 314.743 74.56C315.143 74.96 315.836 75.16 316.823 75.16V76C314.583 75.8933 313.089 75.84 312.343 75.84C311.596 75.84 309.996 75.8933 307.543 76V75.16C308.663 75.16 309.449 74.96 309.903 74.56C310.356 74.1333 310.583 73.3733 310.583 72.28V59.76C310.583 58.5333 310.356 57.64 309.903 57.08C309.449 56.52 308.663 56.24 307.543 56.24V55.4C308.396 55.48 309.223 55.52 310.023 55.52C311.703 55.52 313.089 55.3333 314.183 54.96V59.68C314.849 57.9733 315.769 56.7467 316.943 56C318.143 55.2267 319.489 54.84 320.983 54.84Z" fill="black"/>
<defs>
<clipPath id="clip0">
<rect width="72" height="72" fill="white" transform="translate(12 14)"/>
</clipPath>
</defs>
</svg>
